<mxfile host="app.diagrams.net" modified="2024-06-01T10:44:30.051Z" agent="Mozilla/5.0 (Windows NT 10.0; Win64; x64) AppleWebKit/537.36 (KHTML, like Gecko) Chrome/125.0.0.0 Safari/537.36 Edg/125.0.0.0" etag="8QEVCQGTRXIqjhPXfPj9" version="24.4.13" type="github">
  <diagram name="第 1 页" id="Kvtn0r6tseT2MciesfKV">
    <mxGraphModel dx="1247" dy="671" grid="1" gridSize="10" guides="1" tooltips="1" connect="1" arrows="1" fold="1" page="1" pageScale="1" pageWidth="827" pageHeight="1169" math="0" shadow="0">
      <root>
        <mxCell id="0" />
        <mxCell id="1" parent="0" />
        <mxCell id="nTWq6rhtZonskdAaVbCh-930" value="" style="rounded=1;whiteSpace=wrap;html=1;fillColor=#f5f5f5;strokeColor=#666666;fontColor=#333333;" vertex="1" parent="1">
          <mxGeometry x="220" y="110" width="190" height="150" as="geometry" />
        </mxCell>
        <mxCell id="nTWq6rhtZonskdAaVbCh-931" value="16x16 卷积&lt;div&gt;步长16&lt;/div&gt;" style="rounded=1;whiteSpace=wrap;html=1;direction=north;flipV=1;flipH=1;fillColor=#dae8fc;strokeColor=#6c8ebf;" vertex="1" parent="1">
          <mxGeometry x="292.5" y="143" width="45" height="100" as="geometry" />
        </mxCell>
        <mxCell id="nTWq6rhtZonskdAaVbCh-932" value="大核卷积块" style="text;html=1;align=center;verticalAlign=middle;whiteSpace=wrap;rounded=0;" vertex="1" parent="1">
          <mxGeometry x="280" y="110" width="75" height="30" as="geometry" />
        </mxCell>
        <mxCell id="nTWq6rhtZonskdAaVbCh-933" value="" style="rounded=1;whiteSpace=wrap;html=1;fillColor=#f5f5f5;strokeColor=#666666;fontColor=#333333;" vertex="1" parent="1">
          <mxGeometry x="220" y="300" width="190" height="150" as="geometry" />
        </mxCell>
        <mxCell id="nTWq6rhtZonskdAaVbCh-940" style="edgeStyle=orthogonalEdgeStyle;rounded=0;orthogonalLoop=1;jettySize=auto;html=1;exitX=0.5;exitY=1;exitDx=0;exitDy=0;entryX=0.5;entryY=0;entryDx=0;entryDy=0;" edge="1" parent="1" source="nTWq6rhtZonskdAaVbCh-934" target="nTWq6rhtZonskdAaVbCh-936">
          <mxGeometry relative="1" as="geometry" />
        </mxCell>
        <mxCell id="nTWq6rhtZonskdAaVbCh-934" value="3x3 卷积&lt;div&gt;步长1或2&lt;/div&gt;" style="rounded=1;whiteSpace=wrap;html=1;direction=north;flipV=1;flipH=1;fillColor=#dae8fc;strokeColor=#6c8ebf;" vertex="1" parent="1">
          <mxGeometry x="257.5" y="345" width="27.5" height="70" as="geometry" />
        </mxCell>
        <mxCell id="nTWq6rhtZonskdAaVbCh-935" value="多次卷积块" style="text;html=1;align=center;verticalAlign=middle;whiteSpace=wrap;rounded=0;" vertex="1" parent="1">
          <mxGeometry x="285" y="300" width="65" height="30" as="geometry" />
        </mxCell>
        <mxCell id="nTWq6rhtZonskdAaVbCh-936" value="1x1&lt;span style=&quot;background-color: initial;&quot;&gt;卷积&lt;/span&gt;&lt;div&gt;&lt;div&gt;步长1&lt;/div&gt;&lt;/div&gt;" style="rounded=1;whiteSpace=wrap;html=1;direction=north;flipV=1;flipH=1;fillColor=#dae8fc;strokeColor=#6c8ebf;" vertex="1" parent="1">
          <mxGeometry x="350" y="345" width="27.5" height="70" as="geometry" />
        </mxCell>
        <mxCell id="nTWq6rhtZonskdAaVbCh-937" value="x n" style="text;html=1;align=center;verticalAlign=middle;whiteSpace=wrap;rounded=0;" vertex="1" parent="1">
          <mxGeometry x="270" y="340" width="60" height="30" as="geometry" />
        </mxCell>
        <mxCell id="nTWq6rhtZonskdAaVbCh-938" value="" style="endArrow=classic;html=1;rounded=0;entryX=0.5;entryY=0;entryDx=0;entryDy=0;" edge="1" parent="1" target="nTWq6rhtZonskdAaVbCh-931">
          <mxGeometry width="50" height="50" relative="1" as="geometry">
            <mxPoint x="150" y="193" as="sourcePoint" />
            <mxPoint x="200" y="140" as="targetPoint" />
          </mxGeometry>
        </mxCell>
        <mxCell id="nTWq6rhtZonskdAaVbCh-939" value="" style="endArrow=classic;html=1;rounded=0;entryX=0.5;entryY=0;entryDx=0;entryDy=0;" edge="1" parent="1">
          <mxGeometry width="50" height="50" relative="1" as="geometry">
            <mxPoint x="150" y="379" as="sourcePoint" />
            <mxPoint x="257.5" y="379.47" as="targetPoint" />
          </mxGeometry>
        </mxCell>
        <mxCell id="nTWq6rhtZonskdAaVbCh-941" value="" style="rounded=1;whiteSpace=wrap;html=1;fillColor=#f5f5f5;strokeColor=#666666;fontColor=#333333;" vertex="1" parent="1">
          <mxGeometry x="465" y="111" width="410" height="150" as="geometry" />
        </mxCell>
        <mxCell id="nTWq6rhtZonskdAaVbCh-946" style="edgeStyle=orthogonalEdgeStyle;rounded=0;orthogonalLoop=1;jettySize=auto;html=1;entryX=0.5;entryY=0;entryDx=0;entryDy=0;" edge="1" parent="1" source="nTWq6rhtZonskdAaVbCh-942" target="nTWq6rhtZonskdAaVbCh-943">
          <mxGeometry relative="1" as="geometry" />
        </mxCell>
        <mxCell id="nTWq6rhtZonskdAaVbCh-942" value="批标准化" style="rounded=1;whiteSpace=wrap;html=1;direction=north;flipV=1;flipH=1;fillColor=#fff2cc;strokeColor=#d6b656;" vertex="1" parent="1">
          <mxGeometry x="500" y="143" width="30" height="100" as="geometry" />
        </mxCell>
        <mxCell id="nTWq6rhtZonskdAaVbCh-943" value="多头注意力" style="rounded=1;whiteSpace=wrap;html=1;direction=north;flipV=1;flipH=1;fillColor=#ffe6cc;strokeColor=#d79b00;" vertex="1" parent="1">
          <mxGeometry x="570" y="143" width="40" height="100" as="geometry" />
        </mxCell>
        <mxCell id="nTWq6rhtZonskdAaVbCh-947" value="" style="endArrow=classic;html=1;rounded=0;entryX=0.75;entryY=0;entryDx=0;entryDy=0;" edge="1" parent="1" target="nTWq6rhtZonskdAaVbCh-943">
          <mxGeometry width="50" height="50" relative="1" as="geometry">
            <mxPoint x="550" y="193" as="sourcePoint" />
            <mxPoint x="590" y="93" as="targetPoint" />
            <Array as="points">
              <mxPoint x="550" y="168" />
            </Array>
          </mxGeometry>
        </mxCell>
        <mxCell id="nTWq6rhtZonskdAaVbCh-948" value="" style="endArrow=classic;html=1;rounded=0;entryX=0.75;entryY=0;entryDx=0;entryDy=0;" edge="1" parent="1">
          <mxGeometry width="50" height="50" relative="1" as="geometry">
            <mxPoint x="550" y="193" as="sourcePoint" />
            <mxPoint x="570" y="218" as="targetPoint" />
            <Array as="points">
              <mxPoint x="550" y="218" />
            </Array>
          </mxGeometry>
        </mxCell>
        <mxCell id="nTWq6rhtZonskdAaVbCh-954" style="edgeStyle=orthogonalEdgeStyle;rounded=0;orthogonalLoop=1;jettySize=auto;html=1;exitX=1;exitY=0.5;exitDx=0;exitDy=0;entryX=0.5;entryY=0;entryDx=0;entryDy=0;" edge="1" parent="1" source="nTWq6rhtZonskdAaVbCh-949" target="nTWq6rhtZonskdAaVbCh-953">
          <mxGeometry relative="1" as="geometry" />
        </mxCell>
        <mxCell id="nTWq6rhtZonskdAaVbCh-949" value="" style="shape=orEllipse;perimeter=ellipsePerimeter;whiteSpace=wrap;html=1;backgroundOutline=1;" vertex="1" parent="1">
          <mxGeometry x="650" y="178" width="30" height="30" as="geometry" />
        </mxCell>
        <mxCell id="nTWq6rhtZonskdAaVbCh-950" value="" style="endArrow=none;html=1;rounded=0;exitX=0.5;exitY=1;exitDx=0;exitDy=0;entryX=0;entryY=0.5;entryDx=0;entryDy=0;" edge="1" parent="1" source="nTWq6rhtZonskdAaVbCh-943" target="nTWq6rhtZonskdAaVbCh-949">
          <mxGeometry width="50" height="50" relative="1" as="geometry">
            <mxPoint x="630" y="333" as="sourcePoint" />
            <mxPoint x="680" y="283" as="targetPoint" />
          </mxGeometry>
        </mxCell>
        <mxCell id="nTWq6rhtZonskdAaVbCh-951" style="edgeStyle=orthogonalEdgeStyle;rounded=0;orthogonalLoop=1;jettySize=auto;html=1;exitX=0.5;exitY=1;exitDx=0;exitDy=0;entryX=0.5;entryY=0;entryDx=0;entryDy=0;" edge="1" parent="1" source="nTWq6rhtZonskdAaVbCh-931" target="nTWq6rhtZonskdAaVbCh-942">
          <mxGeometry relative="1" as="geometry" />
        </mxCell>
        <mxCell id="nTWq6rhtZonskdAaVbCh-952" value="" style="endArrow=classic;html=1;rounded=0;entryX=0.5;entryY=1;entryDx=0;entryDy=0;" edge="1" parent="1" target="nTWq6rhtZonskdAaVbCh-949">
          <mxGeometry width="50" height="50" relative="1" as="geometry">
            <mxPoint x="480" y="193" as="sourcePoint" />
            <mxPoint x="616" y="337" as="targetPoint" />
            <Array as="points">
              <mxPoint x="480" y="251" />
              <mxPoint x="665" y="251" />
            </Array>
          </mxGeometry>
        </mxCell>
        <mxCell id="nTWq6rhtZonskdAaVbCh-958" style="edgeStyle=orthogonalEdgeStyle;rounded=0;orthogonalLoop=1;jettySize=auto;html=1;exitX=0.5;exitY=1;exitDx=0;exitDy=0;entryX=0.5;entryY=0;entryDx=0;entryDy=0;" edge="1" parent="1" source="nTWq6rhtZonskdAaVbCh-953" target="nTWq6rhtZonskdAaVbCh-955">
          <mxGeometry relative="1" as="geometry" />
        </mxCell>
        <mxCell id="nTWq6rhtZonskdAaVbCh-953" value="批标准化" style="rounded=1;whiteSpace=wrap;html=1;direction=north;flipV=1;flipH=1;fillColor=#fff2cc;strokeColor=#d6b656;" vertex="1" parent="1">
          <mxGeometry x="720" y="143" width="30" height="100" as="geometry" />
        </mxCell>
        <mxCell id="nTWq6rhtZonskdAaVbCh-957" style="edgeStyle=orthogonalEdgeStyle;rounded=0;orthogonalLoop=1;jettySize=auto;html=1;exitX=0.5;exitY=1;exitDx=0;exitDy=0;entryX=0;entryY=0.5;entryDx=0;entryDy=0;" edge="1" parent="1" source="nTWq6rhtZonskdAaVbCh-955" target="nTWq6rhtZonskdAaVbCh-956">
          <mxGeometry relative="1" as="geometry" />
        </mxCell>
        <mxCell id="nTWq6rhtZonskdAaVbCh-955" value="MLP&lt;span style=&quot;white-space: pre;&quot;&gt;&#x9;&lt;/span&gt;" style="rounded=1;whiteSpace=wrap;html=1;direction=north;flipV=1;flipH=1;fillColor=#e1d5e7;strokeColor=#9673a6;" vertex="1" parent="1">
          <mxGeometry x="770" y="143" width="30" height="100" as="geometry" />
        </mxCell>
        <mxCell id="nTWq6rhtZonskdAaVbCh-956" value="" style="shape=orEllipse;perimeter=ellipsePerimeter;whiteSpace=wrap;html=1;backgroundOutline=1;" vertex="1" parent="1">
          <mxGeometry x="820" y="178" width="30" height="30" as="geometry" />
        </mxCell>
        <mxCell id="nTWq6rhtZonskdAaVbCh-959" value="" style="endArrow=classic;html=1;rounded=0;entryX=0.5;entryY=1;entryDx=0;entryDy=0;" edge="1" parent="1" target="nTWq6rhtZonskdAaVbCh-956">
          <mxGeometry width="50" height="50" relative="1" as="geometry">
            <mxPoint x="688" y="193" as="sourcePoint" />
            <mxPoint x="882.5" y="208" as="targetPoint" />
            <Array as="points">
              <mxPoint x="687.5" y="251" />
              <mxPoint x="835" y="251" />
            </Array>
          </mxGeometry>
        </mxCell>
        <mxCell id="nTWq6rhtZonskdAaVbCh-960" value="Transformer模块" style="text;html=1;align=center;verticalAlign=middle;whiteSpace=wrap;rounded=0;" vertex="1" parent="1">
          <mxGeometry x="640" y="114" width="110" height="30" as="geometry" />
        </mxCell>
        <mxCell id="nTWq6rhtZonskdAaVbCh-961" value="&lt;font color=&quot;#ffb570&quot;&gt;&lt;b&gt;L x&lt;/b&gt;&lt;/font&gt;" style="text;html=1;align=center;verticalAlign=middle;whiteSpace=wrap;rounded=0;" vertex="1" parent="1">
          <mxGeometry x="805" y="121" width="60" height="30" as="geometry" />
        </mxCell>
        <mxCell id="nTWq6rhtZonskdAaVbCh-962" value="" style="rounded=1;whiteSpace=wrap;html=1;fillColor=#f5f5f5;strokeColor=#666666;fontColor=#333333;" vertex="1" parent="1">
          <mxGeometry x="468" y="297" width="410" height="150" as="geometry" />
        </mxCell>
        <mxCell id="nTWq6rhtZonskdAaVbCh-963" style="edgeStyle=orthogonalEdgeStyle;rounded=0;orthogonalLoop=1;jettySize=auto;html=1;entryX=0.5;entryY=0;entryDx=0;entryDy=0;" edge="1" source="nTWq6rhtZonskdAaVbCh-964" target="nTWq6rhtZonskdAaVbCh-965" parent="1">
          <mxGeometry relative="1" as="geometry" />
        </mxCell>
        <mxCell id="nTWq6rhtZonskdAaVbCh-964" value="批标准化" style="rounded=1;whiteSpace=wrap;html=1;direction=north;flipV=1;flipH=1;fillColor=#fff2cc;strokeColor=#d6b656;" vertex="1" parent="1">
          <mxGeometry x="503" y="329" width="30" height="100" as="geometry" />
        </mxCell>
        <mxCell id="nTWq6rhtZonskdAaVbCh-965" value="多头注意力" style="rounded=1;whiteSpace=wrap;html=1;direction=north;flipV=1;flipH=1;fillColor=#ffe6cc;strokeColor=#d79b00;" vertex="1" parent="1">
          <mxGeometry x="573" y="329" width="40" height="100" as="geometry" />
        </mxCell>
        <mxCell id="nTWq6rhtZonskdAaVbCh-966" value="" style="endArrow=classic;html=1;rounded=0;entryX=0.75;entryY=0;entryDx=0;entryDy=0;" edge="1" target="nTWq6rhtZonskdAaVbCh-965" parent="1">
          <mxGeometry width="50" height="50" relative="1" as="geometry">
            <mxPoint x="553" y="379" as="sourcePoint" />
            <mxPoint x="593" y="279" as="targetPoint" />
            <Array as="points">
              <mxPoint x="553" y="354" />
            </Array>
          </mxGeometry>
        </mxCell>
        <mxCell id="nTWq6rhtZonskdAaVbCh-967" value="" style="endArrow=classic;html=1;rounded=0;entryX=0.75;entryY=0;entryDx=0;entryDy=0;" edge="1" parent="1">
          <mxGeometry width="50" height="50" relative="1" as="geometry">
            <mxPoint x="553" y="379" as="sourcePoint" />
            <mxPoint x="573" y="404" as="targetPoint" />
            <Array as="points">
              <mxPoint x="553" y="404" />
            </Array>
          </mxGeometry>
        </mxCell>
        <mxCell id="nTWq6rhtZonskdAaVbCh-968" style="edgeStyle=orthogonalEdgeStyle;rounded=0;orthogonalLoop=1;jettySize=auto;html=1;exitX=1;exitY=0.5;exitDx=0;exitDy=0;entryX=0.5;entryY=0;entryDx=0;entryDy=0;" edge="1" source="nTWq6rhtZonskdAaVbCh-969" parent="1">
          <mxGeometry relative="1" as="geometry">
            <mxPoint x="723" y="378" as="targetPoint" />
          </mxGeometry>
        </mxCell>
        <mxCell id="nTWq6rhtZonskdAaVbCh-969" value="" style="shape=orEllipse;perimeter=ellipsePerimeter;whiteSpace=wrap;html=1;backgroundOutline=1;" vertex="1" parent="1">
          <mxGeometry x="653" y="363" width="30" height="30" as="geometry" />
        </mxCell>
        <mxCell id="nTWq6rhtZonskdAaVbCh-970" value="" style="endArrow=none;html=1;rounded=0;exitX=0.5;exitY=1;exitDx=0;exitDy=0;entryX=0;entryY=0.5;entryDx=0;entryDy=0;" edge="1" target="nTWq6rhtZonskdAaVbCh-969" parent="1">
          <mxGeometry width="50" height="50" relative="1" as="geometry">
            <mxPoint x="613" y="378" as="sourcePoint" />
            <mxPoint x="683" y="468" as="targetPoint" />
          </mxGeometry>
        </mxCell>
        <mxCell id="nTWq6rhtZonskdAaVbCh-971" value="" style="endArrow=classic;html=1;rounded=0;entryX=0.5;entryY=1;entryDx=0;entryDy=0;" edge="1" target="nTWq6rhtZonskdAaVbCh-969" parent="1">
          <mxGeometry width="50" height="50" relative="1" as="geometry">
            <mxPoint x="483" y="379" as="sourcePoint" />
            <mxPoint x="619" y="523" as="targetPoint" />
            <Array as="points">
              <mxPoint x="483" y="437" />
              <mxPoint x="668" y="437" />
            </Array>
          </mxGeometry>
        </mxCell>
        <mxCell id="nTWq6rhtZonskdAaVbCh-972" style="edgeStyle=orthogonalEdgeStyle;rounded=0;orthogonalLoop=1;jettySize=auto;html=1;exitX=0.5;exitY=1;exitDx=0;exitDy=0;entryX=0.5;entryY=0;entryDx=0;entryDy=0;" edge="1" parent="1">
          <mxGeometry relative="1" as="geometry">
            <mxPoint x="753" y="378" as="sourcePoint" />
            <mxPoint x="773" y="378" as="targetPoint" />
          </mxGeometry>
        </mxCell>
        <mxCell id="nTWq6rhtZonskdAaVbCh-973" value="批标准化" style="rounded=1;whiteSpace=wrap;html=1;direction=north;flipV=1;flipH=1;fillColor=#fff2cc;strokeColor=#d6b656;" vertex="1" parent="1">
          <mxGeometry x="723" y="329" width="30" height="100" as="geometry" />
        </mxCell>
        <mxCell id="nTWq6rhtZonskdAaVbCh-974" style="edgeStyle=orthogonalEdgeStyle;rounded=0;orthogonalLoop=1;jettySize=auto;html=1;exitX=0.5;exitY=1;exitDx=0;exitDy=0;entryX=0;entryY=0.5;entryDx=0;entryDy=0;" edge="1" source="nTWq6rhtZonskdAaVbCh-975" target="nTWq6rhtZonskdAaVbCh-976" parent="1">
          <mxGeometry relative="1" as="geometry" />
        </mxCell>
        <mxCell id="nTWq6rhtZonskdAaVbCh-975" value="MLP&lt;span style=&quot;white-space: pre;&quot;&gt;&#x9;&lt;/span&gt;" style="rounded=1;whiteSpace=wrap;html=1;direction=north;flipV=1;flipH=1;fillColor=#e1d5e7;strokeColor=#9673a6;" vertex="1" parent="1">
          <mxGeometry x="773" y="329" width="30" height="100" as="geometry" />
        </mxCell>
        <mxCell id="nTWq6rhtZonskdAaVbCh-976" value="" style="shape=orEllipse;perimeter=ellipsePerimeter;whiteSpace=wrap;html=1;backgroundOutline=1;" vertex="1" parent="1">
          <mxGeometry x="823" y="364" width="30" height="30" as="geometry" />
        </mxCell>
        <mxCell id="nTWq6rhtZonskdAaVbCh-977" value="" style="endArrow=classic;html=1;rounded=0;entryX=0.5;entryY=1;entryDx=0;entryDy=0;" edge="1" target="nTWq6rhtZonskdAaVbCh-976" parent="1">
          <mxGeometry width="50" height="50" relative="1" as="geometry">
            <mxPoint x="691" y="379" as="sourcePoint" />
            <mxPoint x="885.5" y="394" as="targetPoint" />
            <Array as="points">
              <mxPoint x="690.5" y="437" />
              <mxPoint x="838" y="437" />
            </Array>
          </mxGeometry>
        </mxCell>
        <mxCell id="nTWq6rhtZonskdAaVbCh-978" value="Transformer模块" style="text;html=1;align=center;verticalAlign=middle;whiteSpace=wrap;rounded=0;" vertex="1" parent="1">
          <mxGeometry x="643" y="300" width="110" height="30" as="geometry" />
        </mxCell>
        <mxCell id="nTWq6rhtZonskdAaVbCh-979" value="&lt;font color=&quot;#ffb570&quot;&gt;&lt;b&gt;(L-1) x&lt;/b&gt;&lt;/font&gt;" style="text;html=1;align=center;verticalAlign=middle;whiteSpace=wrap;rounded=0;" vertex="1" parent="1">
          <mxGeometry x="808" y="307" width="60" height="30" as="geometry" />
        </mxCell>
        <mxCell id="nTWq6rhtZonskdAaVbCh-980" style="edgeStyle=orthogonalEdgeStyle;rounded=0;orthogonalLoop=1;jettySize=auto;html=1;entryX=0.5;entryY=0;entryDx=0;entryDy=0;" edge="1" parent="1" source="nTWq6rhtZonskdAaVbCh-936" target="nTWq6rhtZonskdAaVbCh-964">
          <mxGeometry relative="1" as="geometry" />
        </mxCell>
      </root>
    </mxGraphModel>
  </diagram>
</mxfile>
